<?xml version="1.0" encoding="iso-8859-1"?>
<!-- Generator: Adobe Illustrator 21.0.0, SVG Export Plug-In . SVG Version: 6.00 Build 0)  -->
<svg xmlns="http://www.w3.org/2000/svg" xmlns:xlink="http://www.w3.org/1999/xlink" version="1.1" id="Capa_1" x="0px" y="0px" viewBox="0 0 512 512" style="enable-background:new 0 0 512 512;" xml:space="preserve" width="512" height="512">
<g>
	<path style="fill:#7EC8F2;" d="M256,22C120.69,22,11,131.69,11,267c0,75.721,34.358,143.411,88.328,188.353l296.831,12.603   C459.536,423.67,501,350.182,501,267C501,131.69,391.31,22,256,22z"/>
	<path style="fill:#FCD2AE;" d="M341.849,172.282c-4.078-9.701-15.372-13.931-24.761-9.452l-88.828,42.358   c-3.398,1.62-7.191,2.359-10.921,1.855c-8.81-1.192-10.906-7.574-11.325-11.709v-7.334c-3.403,2.974-7.303,5.42-11.566,7.208   c-3.678,1.543-7.893,1.537-11.556,0c-4.341-1.821-8.303-4.328-11.75-7.377v11.493c0,6.92-3.792,13.284-9.879,16.577   c-12.279,1.996-20.693,13.675-18.697,25.954l14.527,41.63c0.312,1.921,0.861,3.747,1.613,5.453   c11.294,25.647,9.002,38.628,13.497,66.289l5.328,39.353l68.29-25.972l-3.053-75.645c0.295,0.639,1.423-6.572,4.03-13.33   c1.392-3.611,1.877-7.62,1.215-11.696l-4.768-29.339l89.136-42.504C341.274,191.852,345.667,181.367,341.849,172.282z"/>
	<path style="fill:#F9BD91;" d="M243.243,238.597l9.593-4.574c-8.718-2.924-15.001-11.154-15.001-20.856   c0-6.138,2.516-11.687,6.571-15.677l-16.146,7.699c-3.398,1.62-7.191,2.359-10.921,1.855c-8.81-1.192-10.906-7.574-11.325-11.709   v-7.334c-3.403,2.974-7.303,5.42-11.566,7.208c-3.678,1.543-7.893,1.537-11.556,0c-4.341-1.821-8.303-4.328-11.75-7.377v11.493   c0,6.92-3.792,13.284-9.879,16.577c-12.279,1.996-20.693,13.675-18.697,25.954l14.527,41.63c0.312,1.921,0.861,3.747,1.613,5.453   c11.294,25.647,9.002,38.628,13.497,66.289l5.328,39.353l68.29-25.972l-3.053-75.645c0.295,0.639,1.423-6.572,4.03-13.33   c1.392-3.611,1.877-7.62,1.215-11.696L243.243,238.597z"/>
	<path style="fill:#EAA77A;" d="M191.515,196.089c-2.882,0.553-5.904,0.26-8.623-0.88c-4.341-1.821-8.303-4.328-11.75-7.377v11.493   c0,6.92-3.792,13.284-9.879,16.577c-12.279,1.996-20.693,13.675-18.697,25.954l14.527,41.63c0.312,1.921,0.861,3.747,1.613,5.453   c4.355,9.89,6.686,17.895,8.169,25.586c22.066-13.551,12.755-57.31,21.795-77.667C194.436,223.871,193.362,207.406,191.515,196.089   z"/>
	<path style="fill:#FF3C63;" d="M171.224,259.308c3.939,27.051-2.355,40.184-6.299,45.499c-1.74,2.345-2.443,5.292-1.992,8.177   l7.206,39.87c13.167,3.009,56.502,10.855,80.094-9.625l-0.721-44.115c0,0,14.928-27.117,3.293-50.199   c-11.443-22.704-30.558-13.425-34.946-41.6c-0.139-0.89-0.727-1.646-1.566-1.972l-3.605-1.399   c-1.127-0.438-2.308,0.497-2.132,1.694c0.906,6.161,2.015,20.847-7.592,22.715c-12.202,2.373-33.979-11.799-33.979-11.799   l-0.201-0.175c-3.068-2.673-7.351-3.495-11.166-2.08c-0.247,0.091-0.496,0.18-0.746,0.264c-1.09,0.366-2.148,0.82-3.165,1.356   l-14.842,5.076C138.864,220.994,165.696,221.347,171.224,259.308z"/>
	<path style="fill:#383C6B;" d="M188.623,79.81c6.903,0,12.759,1.294,17.689,3.288c0.139-0.877,0.212-1.774,0.212-2.689   c0-9.628-8.015-17.433-17.901-17.433c-9.887,0-17.901,7.805-17.901,17.433c0,0.914,0.073,1.812,0.212,2.689   C175.864,81.104,181.72,79.81,188.623,79.81z"/>
	<path style="fill:#383C6B;" d="M188.623,79.81c6.903,0,12.759,1.294,17.689,3.288c0.139-0.877,0.212-1.774,0.212-2.689   c0-9.628-8.015-17.433-17.901-17.433c-9.887,0-17.901,7.805-17.901,17.433c0,0.914,0.073,1.812,0.212,2.689   C175.864,81.104,181.72,79.81,188.623,79.81z"/>
	<path style="fill:#2B3160;" d="M183.48,71.271c0-3.573,1.987-6.682,4.916-8.283c-9.78,0.12-17.674,7.869-17.674,17.422   c0,0.914,0.073,1.812,0.212,2.689c4.93-1.994,10.786-3.288,17.689-3.288c0.107,0,0.208,0.007,0.314,0.007   C185.717,78.316,183.48,75.058,183.48,71.271z"/>
	<path style="fill:#474979;" d="M153.64,133.356L153.64,133.356c0.501-1.596,1.186-3.556,2.113-4.573   c0.834-0.915,1.357-2.048,1.395-3.259c0.217-7.077,3.01-28.885,29.834-18.871c1.054,0.394,2.23,0.394,3.285,0   c26.824-10.014,29.617,11.795,29.834,18.871c0.037,1.211,0.56,2.344,1.395,3.259c0.926,1.017,1.612,2.977,2.113,4.573l0,0   c1.359-0.882,3.469-1.491,5.376-1.447l0.001-0.005v-16.635c0-13.016-7.451-25.079-19.542-31.154   c-5.524-2.775-12.392-4.701-20.817-4.701c-8.425,0-15.293,1.926-20.817,4.701c-12.091,6.075-19.542,18.138-19.542,31.154v16.635   l0,0.005C150.171,131.865,152.281,132.474,153.64,133.356z"/>
	<path style="fill:#383C6B;" d="M177.734,93.525c0-6.406,3.988-11.869,9.611-14.076c-7.837,0.186-14.301,2.033-19.539,4.665   c-12.091,6.075-19.542,18.138-19.542,31.154v16.635l0,0.005c1.907-0.044,4.017,0.565,5.376,1.447v0   c0.501-1.596,1.186-3.556,2.113-4.573c0.834-0.915,1.357-2.048,1.395-3.259c0.208-6.78,2.795-27.06,26.596-19.948   C180.098,102.813,177.734,98.451,177.734,93.525z"/>
	<path style="fill:#F9BD91;" d="M153.308,154.304c0,0-2.189-13.492,0.332-21.526c-2.288-1.485-6.708-2.21-8.695-0.318   c-4.07,3.875-1.088,9.726,0.339,13.422c0.438,1.135,0.721,2.283,0.849,3.433c0.278,2.499,1.669,6.156,7.437,6.07   C153.482,155.024,153.393,154.67,153.308,154.304z"/>
	<path style="fill:#EAA77A;" d="M152.434,143.709c-1.11,0.882-2.511,1.412-4.039,1.412c-1.489,0-2.857-0.506-3.953-1.349   c0.298,0.753,0.594,1.465,0.842,2.109c0.438,1.135,0.721,2.283,0.849,3.433c0.278,2.499,1.669,6.156,7.437,6.07   c-0.087-0.36-0.176-0.714-0.262-1.08C153.308,154.304,152.51,149.379,152.434,143.709z"/>
	<path style="fill:#F9BD91;" d="M232.301,132.46c-1.988-1.893-6.408-1.167-8.695,0.318c2.521,8.035,0.332,21.526,0.332,21.526   c-0.085,0.366-0.174,0.72-0.262,1.08c5.768,0.086,7.159-3.571,7.437-6.07c0.128-1.15,0.41-2.298,0.849-3.433   C233.389,142.186,236.371,136.335,232.301,132.46z"/>
	<path style="fill:#EAA77A;" d="M228.945,145.121c-1.569,0-3.008-0.556-4.131-1.482c-0.071,5.699-0.875,10.664-0.875,10.664   c-0.085,0.366-0.174,0.721-0.262,1.08c5.768,0.086,7.159-3.571,7.437-6.07c0.128-1.15,0.41-2.298,0.849-3.433   c0.238-0.615,0.519-1.294,0.803-2.01C231.692,144.654,230.374,145.121,228.945,145.121z"/>
	<path style="fill:#FCD2AE;" d="M221.704,128.746c-0.838-0.916-1.364-2.049-1.402-3.261c-0.218-7.081-3.025-28.901-29.982-18.882   c-1.059,0.394-2.241,0.394-3.301,0c-26.957-10.019-29.764,11.801-29.982,18.882c-0.037,1.212-0.563,2.345-1.401,3.261   c-5.619,6.139-2.457,25.535-2.457,25.535c2.688,11.499,6.432,20.04,10.211,26.31c4.471,7.418,11.348,13.198,19.502,16.618   c3.663,1.537,7.879,1.543,11.557,0c8.154-3.42,15.031-9.2,19.502-16.618c3.779-6.27,7.523-14.811,10.211-26.31   C224.161,154.281,227.323,134.885,221.704,128.746z"/>
	<path style="fill:#F9BD91;" d="M180.328,180.591c-2.741-6.27-5.456-14.811-7.406-26.31c0,0-2.294-19.395,1.782-25.535   c0.608-0.916,0.99-2.049,1.017-3.261c0.106-4.754,1.068-16.143,7.602-20.087c-23.507-6.734-26.078,13.345-26.286,20.087   c-0.037,1.212-0.563,2.345-1.401,3.261c-5.619,6.139-2.457,25.535-2.457,25.535c2.688,11.499,6.432,20.04,10.211,26.31   c4.471,7.418,11.348,13.198,19.502,16.618c3.664,1.537,7.878,1.543,11.557,0c0.005-0.002,0.009-0.004,0.014-0.006   C188.552,193.781,183.569,188.004,180.328,180.591z"/>
	<path style="fill:#FCD2AE;" d="M324.964,197.659c-12.634,0-21.573-12.605-17.188-24.595l31.36-85.732   c3.473-9.494,13.983-14.374,23.477-10.901c9.493,3.472,14.373,13.983,10.902,23.477l-31.36,85.732   C339.44,193.057,332.428,197.659,324.964,197.659z"/>
	<path style="fill:#FF3C63;" d="M419.906,15.518C399.28,5.57,376.219,0,351.875,0c-24.344,0-47.405,5.57-68.031,15.518   c-5.061,2.441-6.174,9.171-2.235,13.177l64.386,65.495c3.231,3.287,8.529,3.287,11.76,0l64.386-65.495   C426.08,24.689,424.967,17.959,419.906,15.518z"/>
	<path style="fill:#FF0435;" d="M339.266,63.806c0-4.811,1.144-9.352,3.165-13.377c-8.777-5.201-14.665-14.764-14.665-25.706   c0-10.009,4.929-18.862,12.487-24.281c-20.063,1.476-39.096,6.727-56.409,15.076c-5.061,2.441-6.174,9.171-2.235,13.177   l64.386,65.495c3.231,3.287,8.529,3.287,11.76,0l1.996-2.031C347.854,88.226,339.266,77.022,339.266,63.806z"/>
	<path style="fill:#FF0435;" d="M308.525,56.075l37.47,38.116c3.231,3.287,8.529,3.287,11.76,0l37.47-38.116   c-13.781-3.966-28.32-6.096-43.35-6.096C336.845,49.979,322.306,52.108,308.525,56.075z"/>
	<path style="fill:#C1001A;" d="M339.266,63.806c0-4.811,1.144-9.352,3.165-13.377c-0.073-0.043-0.141-0.092-0.213-0.136   c-11.61,0.71-22.887,2.672-33.693,5.782l37.47,38.116c3.231,3.287,8.529,3.287,11.76,0l1.996-2.031   C347.854,88.226,339.266,77.022,339.266,63.806z"/>
	<path style="fill:#FCD2AE;" d="M356.299,111.992c-0.197,0-0.396-0.003-0.596-0.01c-10.102-0.323-18.031-8.775-17.708-18.878   l0.665-20.798c0.323-10.103,8.734-18.038,18.879-17.709c10.102,0.323,18.031,8.775,17.708,18.878l-0.665,20.798   C374.265,104.178,366.136,111.992,356.299,111.992z"/>
	<path style="fill:#FCD2AE;" d="M342.529,96.655c0,0-14.763-9.085-14.763-15.141c0-6.057,9.463-5.489,14.763-3.407   C347.829,80.189,342.529,96.655,342.529,96.655z"/>
	<path style="fill:#C1001A;" d="M172.076,283.444c-1.157,11.371-4.632,17.967-7.152,21.363c-1.74,2.345-2.443,5.292-1.992,8.177   l7.205,39.87c13.167,3.009,56.503,10.855,80.094-9.625l-0.721-44.115c0,0,5.63-10.245,7.276-23.495   C245.349,289.156,217.658,311.155,172.076,283.444z"/>
	<path style="fill:#FF0435;" d="M256,512c52.127,0,100.443-16.292,140.159-44.044c-83.154-115.754-146.053-128.312-146.053-128.312   c-26.277,24.284-80.618,9.046-80.618,9.046c-31.129,31.129-53.751,69.039-70.159,106.664C141.799,490.719,196.411,512,256,512z"/>
	<path style="fill:#C1001A;" d="M204.465,506.553c-30.074-25.638-41.935-59.867-36.835-90.53c5.659-34.03,26.72-52.899,43.35-62.734   c-21.559,0.986-41.492-4.601-41.492-4.601c-31.129,31.129-53.75,69.039-70.159,106.664   C129.197,480.225,165.077,498.117,204.465,506.553z"/>
	<path style="fill:#FCD2AE;" d="M337.084,318.274c-1.874-9.932-11.442-16.468-21.379-14.594l-5.789,1.092   c-0.519-3.722-1.902-7.749-5.398-8.635c-4.742-1.202-7.574,6.233-8.863,10.897l-79.182-4.54l-55.622-75.547   c-5.994-8.141-17.453-9.88-25.59-3.888c-8.14,5.993-9.881,17.451-3.887,25.59l60.768,82.538c3.588,4.874,9.133,7.453,14.753,7.453   c0.104,0,0.207-0.01,0.311-0.012c119.01,5.334,75.09,7.901,115.284,1.023C332.423,337.778,338.956,328.207,337.084,318.274z"/>
	<path style="fill:#F9BD91;" d="M158.889,255.328c6.331-4.662,14.381-5.284,21.112-2.369l-19.151-26.012   c-5.994-8.141-17.453-9.88-25.59-3.888c-8.14,5.993-9.881,17.451-3.887,25.59l18.948,25.736   C149.687,267.22,152.672,259.905,158.889,255.328z"/>
</g>















</svg>
